<?xml version="1.0" encoding="UTF-8"?>
<!DOCTYPE svg PUBLIC "-//W3C//DTD SVG 1.1//EN" "http://www.w3.org/Graphics/SVG/1.1/DTD/svg11.dtd">
<!-- Creator: CorelDRAW -->
<svg xmlns="http://www.w3.org/2000/svg" xml:space="preserve" width="150mm" height="75.1218mm" version="1.1" style="shape-rendering:geometricPrecision; text-rendering:geometricPrecision; image-rendering:optimizeQuality; fill-rule:evenodd; clip-rule:evenodd"
viewBox="0 0 15000 7512.17"
 xmlns:xlink="http://www.w3.org/1999/xlink"
 xmlns:xodm="http://www.corel.com/coreldraw/odm/2003">
 <defs>
  <style type="text/css">
   <![CDATA[
    .fil0 {fill:#373535;fill-rule:nonzero}
    .fil1 {fill:#EE3738;fill-rule:nonzero}
   ]]>
  </style>
 </defs>
 <g id="Capa_x0020_1">
  <metadata id="CorelCorpID_0Corel-Layer"/>
  <polygon id="_217770736" class="fil0" points="27.07,5928.88 14960.8,3676.48 14979.1,3798.18 45.36,6050.58 "/>
  <path id="_217770688" class="fil0" d="M12465.7 3515.28l-972.02 0 0 -33.83c87.87,-8.08 148.97,-22.73 183.3,-44.43 61.09,-38.37 91.9,-91.9 91.9,-159.56 0,-40.4 -13.63,-94.94 -41.41,-163.1l-25.25 -62.1 -141.88 -348.92 -650.87 0 -77.26 204 -36.85 91.89c-44.44,108.57 -66.66,193.91 -66.66,256.01 0,36.35 8.08,70.19 24.75,102 16.16,31.31 37.86,57.06 65.64,76.75 38.37,26.76 87.85,42.41 147.94,47.46l0 33.83 -662.48 0 0 -33.83c52.01,-3.02 97.96,-15.65 137.35,-38.37 39.38,-22.73 78.26,-59.08 115.63,-109.58 31.3,-40.39 62.11,-92.39 92.4,-156.02 29.8,-63.62 69.68,-159.06 119.16,-286.3l541.3 -1395.15 84.32 0 643.3 1554.71c48.48,117.65 86.85,201.47 115.64,251.46 28.27,50.49 59.57,88.36 92.91,114.11 23.72,17.68 51,31.31 81.29,40.91 30.8,9.09 76.75,17.16 137.85,24.23l0 33.83zm-929.09 -872.53l-310.54 -766.5 -292.86 766.5 603.4 0zm1359.81 -179.26c35.35,-62.1 75.23,-109.07 119.67,-140.36 81.8,-58.08 175.22,-87.37 279.73,-87.37 64.13,0 113.11,14.15 146.44,42.93 30.79,25.75 45.95,57.05 45.95,94.42 0,27.77 -9.1,50.5 -27.27,68.16 -18.68,17.68 -41.9,26.77 -70.69,26.77 -33.33,0 -62.62,-14.14 -86.85,-41.4l-45.95 -50.5c-36.86,-38.38 -79.27,-57.57 -128.76,-57.57 -67.16,0 -119.17,43.44 -157.04,130.28 -37.36,86.85 -56.04,207.53 -56.04,362.05l0 276.7 1.51 112.6c0,66.66 4.05,116.14 11.62,146.94 8.07,31.3 23.22,57.05 45.94,77.76 27.78,26.76 78.78,46.95 152.5,60.59l0 29.79 -652.9 0 0 -29.79c59.09,-8.08 101.5,-19.18 127.25,-33.33 25.75,-14.13 46.45,-38.88 62.11,-73.21 11.11,-22.73 18.68,-57.06 23.23,-102.5 4.54,-45.96 6.57,-112.61 6.57,-198.94l0 -365.58c0,-101.5 -2.53,-172.69 -7.59,-213.6 -4.53,-40.9 -15.65,-74.22 -32.31,-99.97 -16.66,-27.78 -36.86,-47.47 -60.59,-60.09 -23.73,-12.13 -57.57,-19.7 -102.01,-22.73l0 -29.78 380.23 -53.03c16.66,89.88 25.25,166.63 25.25,230.76zm1892.01 -264.58l0 1566.32c0,66.65 4.03,116.13 11.61,146.94 8.08,31.3 23.23,57.56 45.95,79.27 27.78,26.77 79.28,46.46 154.01,59.08l0 29.79 -654.41 0 0 -29.79c59.09,-8.08 101.5,-18.68 127.25,-32.31 25.75,-14.15 46.45,-38.38 62.11,-72.72 11.11,-22.72 19.18,-57.06 23.74,-103.51 5.04,-46.46 7.56,-112.6 7.56,-198.44l0 -286.8c-41.4,50.98 -81.29,88.86 -119.66,112.09 -75.25,48.48 -165.13,72.71 -270.66,72.71 -149.96,0 -280.24,-47.47 -391.83,-141.89 -136.83,-118.16 -205.51,-283.77 -205.51,-496.86 0,-201.98 58.57,-364.06 175.22,-485.24 116.63,-121.19 273.17,-181.79 469.59,-181.79 80.79,0 150.97,12.63 210.06,38.38l76.74 33.83c18.68,8.08 36.36,12.13 53.02,12.13 51.51,0 96.45,-40.4 134.82,-121.19l90.39 0zm-222.18 709.44c0,-106.54 -6.06,-203.5 -17.67,-291.86 -12.11,-88.37 -27.26,-152.5 -45.95,-192.88 -23.73,-49.5 -57.56,-87.87 -102,-114.63 -44.44,-27.26 -95.43,-40.9 -153.5,-40.9 -114.62,0 -209.05,51.5 -283.78,154 -40.4,55.05 -72.2,122.2 -94.93,201.48 -22.72,79.78 -33.82,163.6 -33.82,252.47 0,92.41 12.62,180.77 38.37,264.08 25.75,83.32 62.1,154.51 109.57,213.6 37.37,48.47 78.26,85.32 123.2,110.07 44.94,25.25 90.9,37.87 138.37,37.87 57.05,0 110.07,-17.68 159.05,-52.52 48.47,-34.83 85.34,-81.29 110.07,-138.35 35.35,-81.8 53.02,-216.11 53.02,-402.43z"/>
  <path id="_217770640" class="fil0" d="M7550.2 5646.58l0 -404.9 414.57 0 0 68.9 -320.31 0 0 90.48 186.95 0 0 68.89 -186.95 0 0 100.42 324.11 0 0 76.21 -418.37 0zm942.88 -334.04l-265.02 0 0 86.94 252.33 0c39.61,0 66.43,6.8 80.29,20.28 13.97,13.58 20.9,38.69 20.9,75.56l0 55.55c0,36.75 -6.93,61.86 -20.9,75.44 -13.86,13.47 -40.68,20.27 -80.29,20.27l-249.97 0c-39.62,0 -66.41,-6.8 -80.28,-20.27 -13.99,-13.58 -20.92,-38.69 -20.92,-75.44l0 -11.1 83.17 -17.27 0 47.87 286.04 0 0 -92.32 -252.32 0c-39.36,0 -65.89,-6.78 -79.75,-20.25 -13.73,-13.6 -20.66,-38.71 -20.66,-75.57l0 -44.71c0,-36.87 6.93,-61.98 20.66,-75.57 13.86,-13.47 40.39,-20.27 79.75,-20.27l229.7 0c38.06,0 64.34,6.54 78.71,19.48 14.51,13.08 21.7,36.22 21.7,69.43l0 8.36 -83.14 19.62 0 -46.03zm472.35 1.58l0 332.46 -94.26 0 0 -332.46 -185.79 0 0 -72.44 466.61 0 0 72.44 -186.56 0zm396 -72.44l0 328.69 268.41 0 0 -328.69 93.87 0 0 309.19c0,37.01 -6.93,62.25 -20.66,75.57 -13.86,13.47 -40.39,20.14 -79.75,20.14l-255.72 0c-39.09,0 -65.63,-6.67 -79.49,-20.14 -13.99,-13.32 -20.92,-38.56 -20.92,-75.57l0 -309.19 94.26 0zm663.76 328.69l121.86 0c64.83,0 110.73,-10.08 137.79,-30.21 27.07,-20.27 40.65,-53.6 40.65,-100.02 0,-41.43 -11.23,-72.68 -33.72,-94 -22.48,-21.31 -55.7,-32.02 -99.62,-32.02l-166.96 0 0 256.25zm-94.26 76.21l0 -404.9 260.57 0c74.25,0 131.38,17.38 171.39,52.03 39.87,34.79 59.88,84.08 59.88,147.87 0,37.92 -7.85,71.92 -23.4,102.1 -15.56,30.34 -37.52,54.13 -65.89,71.53 -17.53,10.97 -39.49,18.96 -65.63,23.92 -26.15,4.97 -59.75,7.45 -100.55,7.45l-236.37 0zm664.54 0l0 -404.9 94.27 0 0 404.9 -94.27 0zm292.72 -309.06c0,-36.87 6.93,-61.98 20.66,-75.57 13.86,-13.47 40.4,-20.27 79.76,-20.27l297.81 0c39.36,0 65.89,6.8 79.75,20.27 13.73,13.59 20.66,38.7 20.66,75.57l0 213.35c0,37.01 -6.93,62.25 -20.66,75.57 -13.86,13.47 -40.39,20.14 -79.75,20.14l-297.81 0c-39.36,0 -65.9,-6.67 -79.76,-20.14 -13.73,-13.32 -20.66,-38.56 -20.66,-75.57l0 -213.35zm94.26 232.85l310.51 0 0 -256.25 -310.51 0 0 256.25zm1095.07 -256.25l0 332.46 -94.26 0 0 -332.46 -185.78 0 0 -72.44 466.6 0 0 72.44 -186.56 0zm301.74 332.46l0 -404.9 414.58 0 0 68.9 -320.31 0 0 90.48 186.95 0 0 68.89 -186.95 0 0 100.42 324.1 0 0 76.21 -418.37 0zm972.16 -332.46l-294.16 0 0 256.25 294.16 0 0 -90.1 -154 0 0 -68.89 245.52 0 0 139.36c0,37.14 -6.93,62.38 -20.66,75.7 -13.86,13.47 -40.4,20.14 -79.6,20.14l-279.27 0c-39.36,0 -65.89,-6.67 -79.75,-20.14 -13.73,-13.32 -20.66,-38.56 -20.66,-75.7l0 -213.22c0,-36.87 6.93,-61.98 20.66,-75.57 13.86,-13.47 40.39,-20.27 79.75,-20.27l279.27 0c38.69,0 65.22,6.67 79.21,19.89 13.99,13.32 21.05,37.37 21.05,72.15l0 9.15 -91.52 16.48 0 -45.23zm290.64 332.46l0 -404.9 94.27 0 0 328.69 303.7 0 0 76.21 -397.97 0zm535.89 0l0 -404.9 94.26 0 0 404.9 -94.26 0zm404.9 -161.6l177.28 0 -87.33 -164.73 -89.95 164.73zm-181.2 161.6l229.05 -404.9 90.74 0 232.18 404.9 -105.77 0 -48.62 -88.39 -256.64 0 -47.07 88.39 -93.87 0z"/>
  <path id="_217770592" class="fil0" d="M3756.11 7512.17c-1037.01,0 -1976.08,-420.52 -2655.84,-1100.28 -679.75,-679.74 -1100.27,-1618.8 -1100.27,-2655.81 0,-1037.01 420.52,-1976.07 1100.27,-2655.81 679.76,-679.76 1618.83,-1100.28 2655.84,-1100.28 1036.99,0 1976.06,420.52 2655.8,1100.28 679.76,679.74 1100.27,1618.8 1100.27,2655.81 0,1037.01 -420.51,1976.07 -1100.27,2655.81 -679.74,679.76 -1618.81,1100.28 -2655.8,1100.28zm-2568.78 -1187.34c657.46,657.46 1565.72,1064.19 2568.78,1064.19 1003.03,0 1911.3,-406.73 2568.74,-1064.19 657.46,-657.44 1064.18,-1565.7 1064.18,-2568.75 0,-1003.05 -406.72,-1911.31 -1064.18,-2568.75 -657.44,-657.46 -1565.71,-1064.19 -2568.74,-1064.19 -1003.06,0 -1911.32,406.73 -2568.78,1064.19 -657.46,657.44 -1064.18,1565.7 -1064.18,2568.75 0,1003.05 406.72,1911.31 1064.18,2568.75z"/>
  <polygon id="_217770544" class="fil0" points="7.97,3670.58 14999.8,3670.58 14999.8,3793.68 7.97,3793.68 "/>
  <polygon id="_217770496" class="fil0" points="3802.41,3679.48 7532.4,5931.88 7468.81,6037.18 3738.81,3784.88 "/>
  <polygon id="_217770448" class="fil1" points="7.97,5915.78 14999.8,5915.78 14999.8,6096.48 7.97,6096.48 "/>
 </g>
</svg>
